<?xml version="1.0" encoding="utf-8"?>
<!-- Generator: Adobe Illustrator 26.1.0, SVG Export Plug-In . SVG Version: 6.00 Build 0)  -->
<svg version="1.1" id="Layer_1" xmlns="http://www.w3.org/2000/svg" xmlns:xlink="http://www.w3.org/1999/xlink" x="0px" y="0px"
	 viewBox="0 0 24 24" style="enable-background:new 0 0 24 24;" xml:space="preserve">
<style type="text/css">
	.st0{fill:none;stroke:url(#SVGID_1_);stroke-width:2;stroke-linecap:round;stroke-linejoin:round;}
</style>
<linearGradient id="SVGID_1_" gradientUnits="userSpaceOnUse" x1="2" y1="14" x2="22" y2="14" gradientTransform="matrix(1 0 0 -1 0 26)">
	<stop  offset="4.792333e-09" style="stop-color:#F0B90C"/>
	<stop  offset="1" style="stop-color:#F0B90C"/>
</linearGradient>
<path class="st0" d="M22,10H2 M11,14H6 M2,8.2v7.6c0,1.1,0,1.7,0.2,2.1c0.2,0.4,0.5,0.7,0.9,0.9C3.5,19,4.1,19,5.2,19h13.6
	c1.1,0,1.7,0,2.1-0.2c0.4-0.2,0.7-0.5,0.9-0.9c0.2-0.4,0.2-1,0.2-2.1V8.2c0-1.1,0-1.7-0.2-2.1c-0.2-0.4-0.5-0.7-0.9-0.9
	C20.5,5,19.9,5,18.8,5H5.2C4.1,5,3.5,5,3.1,5.2C2.7,5.4,2.4,5.7,2.2,6.1C2,6.5,2,7.1,2,8.2z"/>
</svg>
