<?xml version="1.0" encoding="utf-8"?>
<!-- Generator: Adobe Illustrator 28.2.0, SVG Export Plug-In . SVG Version: 6.00 Build 0)  -->
<svg version="1.1" id="Layer_1" xmlns="http://www.w3.org/2000/svg" xmlns:xlink="http://www.w3.org/1999/xlink" x="0px" y="0px"
	 viewBox="0 0 35 35" style="enable-background:new 0 0 35 35;" xml:space="preserve">
<style type="text/css">
	.st0{display:none;fill:url(#SVGID_1_);}
	.st1{display:none;fill:url(#SVGID_00000130617531126702509190000015867250710377861819_);}
	.st2{display:none;fill:url(#SVGID_00000047770053487238248740000005655342020880181901_);}
	.st3{display:none;opacity:0.28;fill:url(#SVGID_00000086674717334997958420000008733478732926278530_);enable-background:new    ;}
	.st4{display:none;opacity:0.44;}
	.st5{display:inline;fill:url(#SVGID_00000026150392838570984300000011079258206108231814_);}
	.st6{display:inline;fill:url(#SVGID_00000059278795188959644160000003548987423779671214_);}
	.st7{display:none;fill:url(#SVGID_00000178206512614402431430000013831385740841473192_);}
	.st8{display:none;fill:url(#SVGID_00000050664144885562460240000008927234158729829025_);}
	.st9{display:none;opacity:0.5;}
	
		.st10{display:inline;opacity:0.78;fill:url(#SVGID_00000039828134291977002340000000444737243319633045_);enable-background:new    ;}
	
		.st11{display:inline;opacity:0.78;fill:url(#SVGID_00000049204443884766496480000012140625011662022299_);enable-background:new    ;}
	.st12{fill:none;}
	.st13{fill:#F0B90C;}
</style>
<linearGradient id="SVGID_1_" gradientUnits="userSpaceOnUse" x1="7.1587" y1="10.0967" x2="15.2968" y2="10.0967" gradientTransform="matrix(1 0 0 -1 0 36)">
	<stop  offset="0" style="stop-color:#B0D1FF"/>
	<stop  offset="1" style="stop-color:#4F93FF"/>
</linearGradient>
<path class="st0" d="M7.9,28.2c-1-1-1-2.7,0-3.8l1.8-1.9l5.5,5.8l-3.5,0.9L7.9,28.2z"/>
<linearGradient id="SVGID_00000034803828917682734160000011348110710428472718_" gradientUnits="userSpaceOnUse" x1="-2.495944e-07" y1="17.4547" x2="8.3575" y2="17.4547" gradientTransform="matrix(1 0 0 -1 0 36)">
	<stop  offset="0" style="stop-color:#B0D1FF"/>
	<stop  offset="1" style="stop-color:#4F93FF"/>
</linearGradient>
<path style="display:none;fill:url(#SVGID_00000034803828917682734160000011348110710428472718_);" d="M0.5,20.8
	c-0.6-0.6-0.6-1.7,0-2.3l2.6-2.6l5.3,5.4L0.5,20.8z"/>
<linearGradient id="SVGID_00000026148942285269670300000003041079616891207831_" gradientUnits="userSpaceOnUse" x1="18.0026" y1="4.9037" x2="18.3563" y2="41.6891" gradientTransform="matrix(1 0 0 -1 0 36)">
	<stop  offset="0" style="stop-color:#0058D4"/>
	<stop  offset="1" style="stop-color:#00245B"/>
</linearGradient>
<path style="display:none;fill:url(#SVGID_00000026148942285269670300000003041079616891207831_);" d="M34,19.4L20,33.5
	c-1.1,1.1-2.8,1.1-3.8,0L2.3,19.4c-1.1-1.1-1.1-2.8,0-3.9L16.2,1.3c1.1-1.1,2.8-1.1,3.8,0L34,15.5C35,16.6,35,18.3,34,19.4z"/>
<linearGradient id="SVGID_00000078026648748127872470000014998853492017134522_" gradientUnits="userSpaceOnUse" x1="17.8563" y1="27.9574" x2="17.7384" y2="18.1359" gradientTransform="matrix(1 0 0 -1 0 36)">
	<stop  offset="0" style="stop-color:#000000"/>
	<stop  offset="1" style="stop-color:#B0D1FF"/>
</linearGradient>
<path style="display:none;opacity:0.28;fill:url(#SVGID_00000078026648748127872470000014998853492017134522_);enable-background:new    ;" d="
	M33.1,15.6c-2.6,1.3-6.6,1.8-12.3-0.7c-7.2-3.2-14-0.9-18.4,1.6c0.1-0.2,0.2-0.4,0.4-0.5L16.7,1.8c0.4-0.4,0.9-0.6,1.4-0.6
	c0.5,0,1,0.2,1.4,0.6L33.1,15.6z"/>
<g class="st4">
	
		<linearGradient id="SVGID_00000029009917233963050540000008808780622147251587_" gradientUnits="userSpaceOnUse" x1="11.7896" y1="10.8543" x2="27.9271" y2="10.8543" gradientTransform="matrix(1 0 0 -1 0 36)">
		<stop  offset="0" style="stop-color:#001334"/>
		<stop  offset="1" style="stop-color:#00245B"/>
	</linearGradient>
	<path style="display:inline;fill:url(#SVGID_00000029009917233963050540000008808780622147251587_);" d="M27.9,18.8l-2,7.7l-1.2-2
		l-3.6,3.7c-0.8,0.8-1.8,1.6-2.8,2.2c-1.3,0.8-2.7,1.1-4.2,1.1L11.8,29c2.7-0.2,5.1-1.3,7-3.2l3.7-3.7l-2.3-1.4L27.9,18.8z"/>
	
		<linearGradient id="SVGID_00000013894026887895437290000017999799999255396740_" gradientUnits="userSpaceOnUse" x1="4.5576" y1="18.8941" x2="23.8615" y2="18.8941" gradientTransform="matrix(1 0 0 -1 0 36)">
		<stop  offset="0" style="stop-color:#001334"/>
		<stop  offset="1" style="stop-color:#00245B"/>
	</linearGradient>
	<path style="display:inline;fill:url(#SVGID_00000013894026887895437290000017999799999255396740_);" d="M23.9,9.7l-2.4,9l-1.4-2.3
		l-4.2,4.3c-0.9,0.9-1.9,1.8-3,2.4c-1.7,1.1-3.6,1.5-5.5,1.4l-2.8-2.8c3.2-0.1,6.3-1.4,8.6-3.8l4.3-4.4l-2.7-1.6L23.9,9.7z"/>
</g>
<linearGradient id="SVGID_00000066516748819678550460000017638951686623006363_" gradientUnits="userSpaceOnUse" x1="7.9253" y1="11.7245" x2="27.2423" y2="11.7245" gradientTransform="matrix(1 0 0 -1 0 36)">
	<stop  offset="0" style="stop-color:#0065FF"/>
	<stop  offset="1" style="stop-color:#00C4F7"/>
</linearGradient>
<path style="display:none;fill:url(#SVGID_00000066516748819678550460000017638951686623006363_);" d="M27.2,18l-2,7.7l-1.2-2
	l-3.6,3.6c-0.8,0.9-1.8,1.6-2.8,2.2c-3.1,1.9-7.2,1.3-9.8-1.3h2.6c2.9,0,5.6-1.1,7.7-3.2l3.7-3.7l-2.3-1.4L27.2,18z"/>
<linearGradient id="SVGID_00000028311421472574446980000014817769211067219605_" gradientUnits="userSpaceOnUse" x1="0.4785" y1="19.7669" x2="23.1751" y2="19.7669" gradientTransform="matrix(1 0 0 -1 0 36)">
	<stop  offset="0" style="stop-color:#0065FF"/>
	<stop  offset="1" style="stop-color:#00C4F7"/>
</linearGradient>
<path style="display:none;fill:url(#SVGID_00000028311421472574446980000014817769211067219605_);" d="M23.2,8.8l-2.4,9l-1.4-2.3
	l-4.2,4.3c-0.9,0.9-1.9,1.8-3,2.4C8.4,24.6,3.6,24,0.5,20.8h3c3.4,0,6.6-1.4,9-3.8l4.3-4.4l-2.7-1.6L23.2,8.8z"/>
<g class="st9">
	
		<linearGradient id="SVGID_00000120552914666498201200000008974779089694683044_" gradientUnits="userSpaceOnUse" x1="24.7964" y1="17.2837" x2="20.9941" y2="11.0549" gradientTransform="matrix(1 0 0 -1 0 36)">
		<stop  offset="0" style="stop-color:#000000"/>
		<stop  offset="1" style="stop-color:#B0D1FF"/>
	</linearGradient>
	
		<path style="display:inline;opacity:0.78;fill:url(#SVGID_00000120552914666498201200000008974779089694683044_);enable-background:new    ;" d="
		M26.8,18.4l-1.4,5.2c-1-0.8-2.1-1.5-3.4-2.1l0.3-0.3L20.4,20L26.8,18.4z"/>
	
		<linearGradient id="SVGID_00000168806955093155596730000014492149805829381305_" gradientUnits="userSpaceOnUse" x1="17.4049" y1="21.3773" x2="12.9148" y2="15.6856" gradientTransform="matrix(1 0 0 -1 0 36)">
		<stop  offset="0" style="stop-color:#000000"/>
		<stop  offset="1" style="stop-color:#B0D1FF"/>
	</linearGradient>
	
		<path style="display:inline;opacity:0.78;fill:url(#SVGID_00000168806955093155596730000014492149805829381305_);enable-background:new    ;" d="
		M22.7,9.3l-2,7.7l-1.2-2l-4,4c-0.9-0.3-1.9-0.5-2.9-0.7c-0.3-0.1-0.6-0.1-0.9-0.1c0.3-0.3,0.6-0.6,1-0.9l4.6-4.7L15,11.2L22.7,9.3z
		"/>
</g>
<rect x="-0.2" class="st12" width="35" height="35"/>
<path d="M30,35H5c-2.8,0-5-2.2-5-5V5c0-2.8,2.2-5,5-5h25c2.8,0,5,2.2,5,5v25C35,32.8,32.8,35,30,35z"/>
<g>
	<g>
		<path class="st13" d="M31.5,29.7L31.5,29.7L31.5,29.7L31.5,29.7L31.5,29.7L31.5,29.7L31.5,29.7L31.5,29.7c0,0-11.2-10.9-11.2-10.9
			c0,0,0-0.1,0-0.1c0.1-0.7-0.1-1.4-0.6-2c-0.4-0.5-1-0.9-1.6-1c-0.2,0-0.5-0.1-0.7,0c-1.2,0.1-2.2,0.9-2.5,1.9
			c-0.1,0.3-0.1,0.6-0.1,0.9c0,0.1,0,0.2,0,0.2c0,0,0,0.1,0,0.1c0,0,0,0-0.1,0.1c0.1,0.2-11.1,10.8-11.1,10.8l0,0l0,0l0,0l0,0l0,0
			l0,0l0,0l0,0l0,0l14-24.3l0,0l0,0l0,0l0,0l0,0l0,0l0,0l0,0l0,0L31.5,29.7L31.5,29.7L31.5,29.7L31.5,29.7z"/>
		<path class="st13" d="M15.4,29.7L15.4,29.7L15.4,29.7L15.4,29.7L15.4,29.7L15.4,29.7L15.4,29.7L15.4,29.7L15.4,29.7L15.4,29.7
			L15.4,29.7L15.4,29.7L15.4,29.7L15.4,29.7l1.3-8.4l0,0c0,0,0,0,0,0c0,0,0.1,0,0.1,0c0.3,0.1,0.5,0.1,0.8,0c0.1,0,0.2,0,0.4-0.1
			c0,0,0.1,0,0.1,0c0,0,0,0,0,0l0,0l1.3,8.4l0,0l0,0l0,0l0,0l0,0l0,0l0,0l0,0l0,0l0,0l0,0l0,0l0,0l0,0l0,0l0,0l0,0l0,0L15.4,29.7
			L15.4,29.7z"/>
		<path class="st13" d="M17.5,19.9c-0.7,0-1.4-0.6-1.4-1.4c0-0.8,0.7-1.4,1.4-1.4c0.7,0,1.4,0.6,1.4,1.4
			C18.9,19.3,18.2,19.9,17.5,19.9z"/>
	</g>
</g>
</svg>
