<?xml version="1.0" encoding="utf-8"?>
<!-- Generator: Adobe Illustrator 26.1.0, SVG Export Plug-In . SVG Version: 6.00 Build 0)  -->
<svg version="1.1" id="Layer_1" xmlns="http://www.w3.org/2000/svg" xmlns:xlink="http://www.w3.org/1999/xlink" x="0px" y="0px"
	 viewBox="0 0 24 24" style="enable-background:new 0 0 24 24;" xml:space="preserve">
<g>
	<path d="M6.2,2.2v4h-4v-4H6.2 M6.2,1.2h-4c-0.6,0-1,0.4-1,1v4c0,0.6,0.4,1,1,1h4c0.6,0,1-0.4,1-1v-4C7.2,1.7,6.8,1.2,6.2,1.2
		L6.2,1.2z"/>
</g>
<g>
	<path d="M14,2.2v4h-4v-4H14 M14,1.2h-4c-0.6,0-1,0.4-1,1v4c0,0.6,0.4,1,1,1h4c0.6,0,1-0.4,1-1v-4C15,1.7,14.6,1.2,14,1.2L14,1.2z"
		/>
</g>
<g>
	<path d="M21.8,2.2v4h-4v-4H21.8 M21.8,1.2h-4c-0.6,0-1,0.4-1,1v4c0,0.6,0.4,1,1,1h4c0.6,0,1-0.4,1-1v-4C22.8,1.7,22.3,1.2,21.8,1.2
		L21.8,1.2z"/>
</g>
<g>
	<path d="M6.2,10v4h-4v-4H6.2 M6.2,9h-4c-0.6,0-1,0.4-1,1v4c0,0.6,0.4,1,1,1h4c0.6,0,1-0.4,1-1v-4C7.2,9.4,6.8,9,6.2,9L6.2,9z"/>
</g>
<g>
	<path d="M14,10v4h-4v-4H14 M14,9h-4c-0.6,0-1,0.4-1,1v4c0,0.6,0.4,1,1,1h4c0.6,0,1-0.4,1-1v-4C15,9.4,14.6,9,14,9L14,9z"/>
</g>
<g>
	<path d="M21.8,10v4h-4v-4H21.8 M21.8,9h-4c-0.6,0-1,0.4-1,1v4c0,0.6,0.4,1,1,1h4c0.6,0,1-0.4,1-1v-4C22.8,9.4,22.3,9,21.8,9L21.8,9
		z"/>
</g>
<g>
	<path d="M6.2,17.8v4h-4v-4H6.2 M6.2,16.8h-4c-0.6,0-1,0.4-1,1v4c0,0.6,0.4,1,1,1h4c0.6,0,1-0.4,1-1v-4C7.2,17.2,6.8,16.8,6.2,16.8
		L6.2,16.8z"/>
</g>
<g>
	<path d="M14,17.8v4h-4v-4H14 M14,16.8h-4c-0.6,0-1,0.4-1,1v4c0,0.6,0.4,1,1,1h4c0.6,0,1-0.4,1-1v-4C15,17.2,14.6,16.8,14,16.8
		L14,16.8z"/>
</g>
<g>
	<path d="M21.8,17.8v4h-4v-4H21.8 M21.8,16.8h-4c-0.6,0-1,0.4-1,1v4c0,0.6,0.4,1,1,1h4c0.6,0,1-0.4,1-1v-4
		C22.8,17.2,22.3,16.8,21.8,16.8L21.8,16.8z"/>
</g>
</svg>
