<?xml version="1.0" encoding="utf-8"?>
<!-- Generator: Adobe Illustrator 26.1.0, SVG Export Plug-In . SVG Version: 6.00 Build 0)  -->
<svg version="1.1" id="Layer_1" xmlns="http://www.w3.org/2000/svg" xmlns:xlink="http://www.w3.org/1999/xlink" x="0px" y="0px"
	 viewBox="0 0 24 24" style="enable-background:new 0 0 24 24;" xml:space="preserve">
<g>
	<path d="M12,7.4c-3,0-6,0-9,0c-0.3,0-0.3,0-0.3,0.3c0,2.4,0,4.9,0,7.3c0,1.1,0.8,1.7,1.7,1.7c0.3,0,0.6,0,0.8,0
		c0.4,0,0.7,0.3,0.7,0.7c0,0.4-0.3,0.7-0.7,0.7c-0.6,0-1.2,0-1.8-0.1c-1.3-0.3-2.1-1.4-2.1-2.7c0-1.7,0-3.4,0-5.1c0-1.8,0-3.5,0-5.3
		C1.3,3.2,2.5,2,4.2,2c5.2,0,10.4,0,15.6,0c1.3,0,2.4,0.7,2.8,2c0.1,0.3,0.1,0.6,0.1,0.9c0,3.5,0,7,0,10.4c0,1.6-1.2,2.8-2.9,2.9
		c-0.4,0-0.7,0-1.1,0c-0.4,0-0.7-0.3-0.7-0.7c0-0.4,0.3-0.7,0.7-0.7c0.3,0,0.6,0,0.9,0c0.9,0,1.6-0.7,1.6-1.6c0-2.5,0-5,0-7.5
		c0-0.3-0.1-0.3-0.3-0.3C18,7.4,15,7.4,12,7.4z M2.7,6c6.2,0,12.4,0,18.7,0c0-0.4,0-0.7,0-1c0-0.1,0-0.3,0-0.4c0-0.1,0-0.2-0.1-0.3
		c-0.3-0.6-0.8-0.9-1.4-0.9c-3.4,0-6.8,0-10.2,0c-1.8,0-3.7,0-5.5,0c-0.7,0-1.3,0.5-1.4,1.1C2.6,5,2.7,5.5,2.7,6z"/>
	<path d="M17.2,17.5c0,2.9-2.3,5.2-5.2,5.1c-2.9,0-5.2-2.3-5.2-5.1c0-2.9,2.3-5.2,5.2-5.2C14.9,12.3,17.2,14.6,17.2,17.5z M12,21.2
		c2.1,0,3.8-1.7,3.8-3.8c0-2.1-1.7-3.8-3.8-3.8c-2.1,0-3.8,1.7-3.8,3.8C8.2,19.6,9.9,21.2,12,21.2z"/>
	<path d="M10.5,18.2c-0.2,0-0.4,0-0.6,0c-0.4,0-0.6-0.3-0.6-0.7c0-0.4,0.3-0.7,0.6-0.7c0.1,0,0.2,0,0.3,0c0.4,0,0.7,0,1.1,0
		c0-0.4,0-0.7,0-1.1c0-0.1,0-0.2,0-0.2c0-0.4,0.3-0.7,0.7-0.7c0.4,0,0.7,0.3,0.7,0.7c0,0.4,0,0.8,0,1.2c0,0.2,0.1,0.2,0.2,0.2
		c0.4,0,0.8,0,1.1,0c0.4,0,0.7,0.3,0.7,0.7c0,0.4-0.3,0.7-0.7,0.7c-0.3,0-0.7,0-1,0c-0.3,0-0.4,0.1-0.3,0.3c0,0.4,0,0.8,0,1.2
		c-0.1,0.5-0.6,0.7-1,0.5c-0.2-0.1-0.3-0.3-0.3-0.6c0-0.4,0-0.8,0-1.1c0-0.2-0.1-0.3-0.3-0.3C10.9,18.2,10.7,18.2,10.5,18.2
		C10.5,18.2,10.5,18.2,10.5,18.2z"/>
</g>
</svg>
